HIERARCHY
ROOT Hips
{
    OFFSET 0.000000 0.000000 0.000000
    CHANNELS 6 Xposition Yposition Zposition Zrotation Xrotation Yrotation
    JOINT Spine
    {
        OFFSET -0.000000 14.517291 0.000000
        CHANNELS 3 Zrotation Xrotation Yrotation
        JOINT Spine1
        {
            OFFSET -0.000000 37.558300 0.000000
            CHANNELS 3 Zrotation Xrotation Yrotation
            JOINT Neck
            {
                OFFSET -0.000000 37.404057 3.400369
                CHANNELS 3 Zrotation Xrotation Yrotation
                JOINT Head
                {
                    OFFSET -0.000000 24.785618 -3.540803
                    CHANNELS 3 Zrotation Xrotation Yrotation
                    End Site
                    {
                        OFFSET -0.000000 35.408028 0.000000
                    }
                }
            }
            JOINT LeftShoulder
            {
                OFFSET 6.992933 33.973492 -0.192664
                CHANNELS 3 Zrotation Xrotation Yrotation
                JOINT LeftArm
                {
                    OFFSET 21.527611 0.000000 0.000000
                    CHANNELS 3 Zrotation Xrotation Yrotation
                    JOINT LeftForeArm
                    {
                        OFFSET 56.353916 0.000000 0.000000
                        CHANNELS 3 Zrotation Xrotation Yrotation
                        JOINT LeftHand
                        {
                            OFFSET 47.774071 0.000000 0.000000
                            CHANNELS 3 Zrotation Xrotation Yrotation
                            End Site
                            {
                                OFFSET 26.556021 0.000000 0.000000
                            }
                        }
                    }
                }
            }
            JOINT RightShoulder
            {
                OFFSET -7.065357 33.973492 -0.192664
                CHANNELS 3 Zrotation Xrotation Yrotation
                JOINT RightArm
                {
                    OFFSET -21.527611 0.000000 0.000000
                    CHANNELS 3 Zrotation Xrotation Yrotation
                    JOINT RightForeArm
                    {
                        OFFSET -56.353916 0.000000 0.000000
                        CHANNELS 3 Zrotation Xrotation Yrotation
                        JOINT RightHand
                        {
                            OFFSET -47.774071 0.000000 0.000000
                            CHANNELS 3 Zrotation Xrotation Yrotation
                            End Site
                            {
                                OFFSET -26.556021 0.000000 0.000000
                            }
                        }
                    }
                }
            }
        }
    }
    JOINT LeftUpLeg
    {
        OFFSET 17.704014 0.000000 0.000000
        CHANNELS 3 Zrotation Xrotation Yrotation
        JOINT LeftLeg
        {
            OFFSET -0.000000 -81.181816 0.000000
            CHANNELS 3 Zrotation Xrotation Yrotation
            JOINT LeftFoot
            {
                OFFSET -0.000000 -62.821102 0.000000
                CHANNELS 3 Zrotation Xrotation Yrotation
                JOINT LeftToeBase
                {
                    OFFSET -0.000000 -11.507608 26.556021
                    CHANNELS 3 Zrotation Xrotation Yrotation
                    End Site
                    {
                        OFFSET -0.000000 0.000000 7.081605
                    }
                }
            }
        }
    }
    JOINT RightUpLeg
    {
        OFFSET -17.704014 0.000000 0.000000
        CHANNELS 3 Zrotation Xrotation Yrotation
        JOINT RightLeg
        {
            OFFSET -0.000000 -81.181816 0.000000
            CHANNELS 3 Zrotation Xrotation Yrotation
            JOINT RightFoot
            {
                OFFSET -0.000000 -62.821102 0.000000
                CHANNELS 3 Zrotation Xrotation Yrotation
                JOINT RightToeBase
                {
                    OFFSET -0.000000 -11.507608 26.556021
                    CHANNELS 3 Zrotation Xrotation Yrotation
                    End Site
                    {
                        OFFSET -0.000000 0.000000 7.081605
                    }
                }
            }
        }
    }
}
MOTION
Frames:    9
Frame Time:    0.008333
7.595315    150.811905    52.759491    -5.544590    -0.009514    -74.945030    0.321527    -0.501856    0.955900    0.927329    -1.585216    0.330007    16.207838    -2.427133    10.128937    -7.381217    10.878025    7.421114    10.652970    2.395355    -14.155840    -11.749298    -2.786564    -22.290625    12.560119    -0.817531    -50.451420    -8.040586    7.938957    -38.784870    -11.499055    -1.297268    -5.107661    29.086496    -23.604973    39.461426    6.808911    -22.534372    103.307343    14.056120    -27.007219    29.383001    32.131393    -6.913733    5.097970    -23.654417    34.140560    -2.011113    -10.060896    -19.616833    52.748825    0.000000    0.000000    0.000000    -24.572998    -3.016181    -11.708943    6.062934    32.163776    -6.815320    15.276640    -11.650677    2.706761    0.000000    0.000000    0.000000    
7.934001    151.007080    52.598667    -5.092839    0.157344    -74.938118    0.336353    -0.410391    0.930816    1.000424    -1.676910    0.323657    16.159161    -2.425471    10.129641    -7.450548    10.870012    7.426763    10.584785    2.341525    -14.168848    -11.720627    -2.713299    -22.251259    12.620790    -0.929437    -50.256191    -8.095291    7.891942    -39.317623    -11.565763    -1.230303    -5.108429    29.087036    -23.599787    39.503796    6.772798    -22.578396    103.272438    14.034608    -27.009266    29.380478    32.114048    -7.329143    5.277348    -23.440666    33.779358    -1.985065    -10.203444    -19.277395    52.751911    0.000000    0.000000    0.000000    -24.460842    -3.497260    -11.916007    6.048454    31.909353    -6.877859    15.171059    -11.281776    2.628480    0.000000    0.000000    0.000000    
8.268051    151.210098    52.445721    -4.653729    0.308788    -74.962257    0.362854    -0.338815    0.932158    1.003557    -1.701482    0.324339    16.162066    -2.519824    10.162768    -7.498472    10.968637    7.451570    10.641829    2.333126    -14.156140    -11.778368    -2.808128    -22.290701    12.563902    -0.925963    -50.159679    -7.960904    7.805849    -39.290348    -11.570128    -1.212483    -5.105145    28.890076    -23.213900    39.475761    6.475739    -23.196615    103.209152    14.125918    -27.232613    29.441347    32.075939    -7.689369    5.464860    -23.216328    33.369926    -1.954385    -10.330826    -18.930473    52.774071    0.000000    0.000000    0.000000    -24.362247    -3.973989    -12.159755    5.989039    31.663609    -6.706595    15.069643    -10.941461    2.400038    0.000000    0.000000    0.000000    
8.606067    151.407120    52.291534    -4.198574    0.473150    -75.002724    0.403375    -0.283912    0.945763    1.001961    -1.749461    0.329278    16.186861    -2.512876    10.175415    -7.577448    10.961978    7.457309    10.679764    2.360572    -14.240938    -11.779681    -2.820545    -22.185352    12.713743    -0.964157    -49.976963    -7.949649    7.853897    -39.855873    -11.569310    -1.193830    -5.076859    29.052336    -23.558697    39.514389    6.733163    -22.688427    103.224960    14.015233    -27.058270    29.469162    32.056141    -8.068881    5.653197    -23.013929    32.977894    -1.890207    -10.483678    -18.613148    52.780048    0.000000    0.000000    0.000000    -24.258347    -4.424363    -12.302077    6.006379    31.296717    -6.774972    14.967994    -10.582380    2.327215    0.000000    0.000000    0.000000    
8.940331    151.615051    52.147461    -3.727358    0.606863    -75.021858    0.399471    -0.240256    0.932528    1.028553    -1.798367    0.325842    16.193773    -2.554323    10.209409    -7.644322    11.002070    7.485227    10.632324    2.334713    -14.116610    -11.737655    -2.819473    -22.344925    12.858979    -0.749198    -49.431950    -7.741563    8.109007    -41.473194    -11.577209    -1.182180    -5.047473    28.973146    -23.405371    39.487854    6.586168    -22.915392    103.199547    14.074509    -27.095295    29.450802    31.986362    -8.461771    5.810695    -22.778908    32.570816    -1.846025    -10.653661    -18.271061    52.792767    0.000000    0.000000    0.000000    -24.175932    -4.857951    -12.478398    5.967930    30.888458    -7.081213    14.950263    -10.125013    2.521998    0.000000    0.000000    0.000000    
9.276743    151.817200    52.021935    -3.272039    0.726075    -75.065414    0.412922    -0.166334    0.950560    1.023934    -1.867920    0.332393    16.307392    -2.724445    10.308145    -7.820600    11.245341    7.552495    10.609243    2.287262    -14.139062    -11.693750    -2.665759    -22.308945    12.877701    -0.948611    -49.343876    -7.869030    7.962518    -41.552414    -11.618910    -1.200738    -4.979713    28.980951    -23.420803    39.397671    6.535763    -22.888887    103.193047    14.019026    -27.032059    29.390034    31.899343    -8.813216    5.914161    -22.580276    32.122280    -1.740131    -10.802167    -17.947618    52.818913    0.000000    0.000000    0.000000    -24.128233    -5.343044    -12.654907    5.939817    30.614761    -7.129836    14.875042    -9.716347    2.465277    0.000000    0.000000    0.000000    
9.604274    152.031052    51.897156    -2.801401    0.831688    -75.118019    0.404439    -0.109451    0.977315    1.006584    -1.926546    0.341608    16.315119    -2.771122    10.321503    -7.842355    11.263918    7.558632    10.647621    2.286755    -14.107630    -11.698846    -2.649735    -22.365686    12.853153    -1.020025    -49.296741    -8.017441    7.914358    -41.352352    -11.598422    -1.200748    -5.020676    28.937637    -23.281197    39.443939    6.426246    -23.057905    103.137321    13.969395    -27.071962    29.423246    31.786684    -9.166799    6.056986    -22.330235    31.686605    -1.692163    -10.977457    -17.611895    52.851051    0.000000    0.000000    0.000000    -24.092943    -5.837664    -12.810245    5.920040    30.334673    -7.203672    14.800736    -9.308183    2.391852    0.000000    0.000000    0.000000    
9.915410    152.239517    51.784779    -2.376347    0.904974    -75.164131    0.370246    -0.024544    0.999149    1.003559    -1.976852    0.349351    16.373156    -2.753890    10.348609    -7.941319    11.214817    7.571339    10.664440    2.282544    -14.170169    -11.689140    -2.603944    -22.312958    12.880605    -1.138738    -49.230976    -8.230875    7.869540    -41.214977    -11.612077    -1.236196    -4.993813    28.951477    -23.266739    39.397045    6.478329    -23.003695    103.165192    13.929783    -27.090160    29.434196    31.648384    -9.477171    6.137203    -22.090235    31.248875    -1.695973    -11.129331    -17.293528    52.965710    0.000000    0.000000    0.000000    -24.090576    -6.298628    -12.922604    5.928537    30.110813    -7.240178    14.700662    -8.930199    2.258139    0.000000    0.000000    0.000000    
10.244740    152.457565    51.680328    -1.904228    0.990396    -75.216331    0.379354    0.032784    1.014472    0.929146    -2.038967    0.353812    16.406504    -2.730011    10.364497    -7.963476    11.120694    7.577832    10.720322    2.267653    -14.166150    -11.678917    -2.538808    -22.312754    12.777836    -1.460731    -49.230499    -8.847521    7.695724    -40.774254    -11.567986    -1.278536    -4.975970    28.927404    -23.171854    39.381008    6.423893    -23.101810    103.155472    13.928627    -27.121941    29.438244    31.504803    -9.836146    6.234938    -21.841455    30.814848    -1.711406    -11.290947    -16.975298    53.094337    0.000000    0.000000    0.000000    -24.097393    -6.768001    -13.033658    5.910028    29.824697    -7.271296    14.693894    -8.527577    2.214790    0.000000    0.000000    0.000000    
